HIERARCHY
ROOT newVegas:Hips
{
	OFFSET 0.000000 96.479958 0.000000
	CHANNELS 6 Xposition Yposition Zposition Xrotation Yrotation Zrotation
	JOINT newVegas:Pelvis
	{
		OFFSET 0.000000 0.000000 0.000000
		CHANNELS 3 Xrotation Yrotation Zrotation
		JOINT newVegas:LeftUpLeg
		{
			OFFSET 18.735201 -5.666702 -4.541200
			CHANNELS 3 Xrotation Yrotation Zrotation
			JOINT newVegas:LeftLeg
			{
				OFFSET -0.021200 -31.938179 0.493100
				CHANNELS 3 Xrotation Yrotation Zrotation
				JOINT newVegas:LeftFoot
				{
					OFFSET 0.021200 -31.938179 -4.336299
					CHANNELS 3 Xrotation Yrotation Zrotation
					JOINT newVegas:LeftToeBase
					{
						OFFSET 0.943001 -26.722000 15.023500
						CHANNELS 3 Xrotation Yrotation Zrotation
						End Site
						{
							OFFSET 0.000000 30.670183 0.000000
						}
					}
				}
				JOINT newVegas:Left_PantLeg
				{
					OFFSET 0.663870 -9.044666 -1.108900
					CHANNELS 3 Xrotation Yrotation Zrotation
					End Site
					{
						OFFSET 1.415995 20.635357 0.000000
					}
				}
			}
		}
		JOINT newVegas:RightUpLeg
		{
			OFFSET -18.735201 -5.666702 -4.541200
			CHANNELS 3 Xrotation Yrotation Zrotation
			JOINT newVegas:RightLeg
			{
				OFFSET 0.018946 -31.938133 0.493100
				CHANNELS 3 Xrotation Yrotation Zrotation
				JOINT newVegas:RightFoot
				{
					OFFSET -0.018946 -31.938126 -4.336299
					CHANNELS 3 Xrotation Yrotation Zrotation
					JOINT newVegas:RightToeBase
					{
						OFFSET -0.943001 -26.722004 15.023500
						CHANNELS 3 Xrotation Yrotation Zrotation
						End Site
						{
							OFFSET 0.000000 30.670187 0.000000
						}
					}
				}
				JOINT newVegas:Right_PantLeg
				{
					OFFSET -0.661674 -9.044716 -1.108900
					CHANNELS 3 Xrotation Yrotation Zrotation
					End Site
					{
						OFFSET -1.415958 20.635269 0.000000
					}
				}
			}
		}
	}
	JOINT newVegas:Spine
	{
		OFFSET 0.000000 10.199997 -0.299500
		CHANNELS 3 Xrotation Yrotation Zrotation
		JOINT newVegas:Spine1
		{
			OFFSET 0.000000 11.900002 -1.516600
			CHANNELS 3 Xrotation Yrotation Zrotation
			JOINT newVegas:Spine2
			{
				OFFSET 0.000000 13.600006 -2.842500
				CHANNELS 3 Xrotation Yrotation Zrotation
				JOINT newVegas:Neck
				{
					OFFSET 0.000000 9.624100 -2.890100
					CHANNELS 3 Xrotation Yrotation Zrotation
					JOINT newVegas:Head
					{
						OFFSET 0.000000 14.068802 -1.351900
						CHANNELS 3 Xrotation Yrotation Zrotation
						JOINT newVegas:Hair_Back
						{
							OFFSET 0.000000 3.231903 -17.524799
							CHANNELS 3 Xrotation Yrotation Zrotation
							End Site
							{
								OFFSET 0.000000 19.849884 0.000000
							}
						}
						JOINT newVegas:Hair_Front
						{
							OFFSET 0.000000 31.260406 4.573800
							CHANNELS 3 Xrotation Yrotation Zrotation
							JOINT newVegas:Hair_Front1
							{
								OFFSET 0.000000 2.284103 11.993300
								CHANNELS 3 Xrotation Yrotation Zrotation
								JOINT newVegas:Hair_Front2
								{
									OFFSET 0.000000 2.284103 11.993300
									CHANNELS 3 Xrotation Yrotation Zrotation
									End Site
									{
										OFFSET 0.000000 12.208862 0.000000
									}
								}
							}
						}
						JOINT newVegas:Jowel
						{
							OFFSET 0.000000 -7.458206 6.864100
							CHANNELS 3 Xrotation Yrotation Zrotation
							End Site
							{
								OFFSET 0.000000 19.849884 0.000000
							}
						}
					}
				}
				JOINT newVegas:LeftShoulder
				{
					OFFSET 15.263000 10.923401 -0.547700
					CHANNELS 3 Xrotation Yrotation Zrotation
					JOINT newVegas:LeftArm
					{
						OFFSET 25.438599 -2.830597 -13.032500
						CHANNELS 3 Xrotation Yrotation Zrotation
						JOINT newVegas:LeftForeArm
						{
							OFFSET 29.960503 0.000000 0.000000
							CHANNELS 3 Xrotation Yrotation Zrotation
							JOINT newVegas:LeftHand
							{
								OFFSET 27.849251 0.000000 0.000000
								CHANNELS 3 Xrotation Yrotation Zrotation
								JOINT newVegas:LeftHandThumb1
								{
									OFFSET 4.487587 -3.305161 6.305391
									CHANNELS 3 Xrotation Yrotation Zrotation
									JOINT newVegas:LeftHandThumb2
									{
										OFFSET 5.480453 -3.164139 3.164143
										CHANNELS 3 Xrotation Yrotation Zrotation
										JOINT newVegas:LeftHandThumb3
										{
											OFFSET 5.159721 -2.978973 2.978967
											CHANNELS 3 Xrotation Yrotation Zrotation
											End Site
											{
												OFFSET 2.494507 5.926697 1.738678
											}
										}
									}
								}
								JOINT newVegas:LeftHandIndex1
								{
									OFFSET 18.578728 -0.527832 5.208049
									CHANNELS 3 Xrotation Yrotation Zrotation
									JOINT newVegas:LeftHandIndex2
									{
										OFFSET 3.192009 0.000000 0.000000
										CHANNELS 3 Xrotation Yrotation Zrotation
										JOINT newVegas:LeftHandIndex3
										{
											OFFSET 3.835129 0.000000 0.000000
											CHANNELS 3 Xrotation Yrotation Zrotation
											End Site
											{
												OFFSET -0.034599 3.816971 0.371180
											}
										}
									}
								}
								JOINT newVegas:LeftHandMiddle1
								{
									OFFSET 18.476105 0.000000 0.000000
									CHANNELS 3 Xrotation Yrotation Zrotation
									JOINT newVegas:LeftHandMiddle2
									{
										OFFSET 3.324875 0.000000 0.000000
										CHANNELS 3 Xrotation Yrotation Zrotation
										JOINT newVegas:LeftHandMiddle3
										{
											OFFSET 4.596550 0.000000 0.000000
											CHANNELS 3 Xrotation Yrotation Zrotation
											End Site
											{
												OFFSET 0.057701 4.578827 0.399218
											}
										}
									}
								}
								JOINT newVegas:LeftHandRing1
								{
									OFFSET 17.732719 0.121887 -4.201567
									CHANNELS 3 Xrotation Yrotation Zrotation
									JOINT newVegas:LeftHandRing2
									{
										OFFSET 2.733170 0.000000 0.000000
										CHANNELS 3 Xrotation Yrotation Zrotation
										JOINT newVegas:LeftHandRing3
										{
											OFFSET 3.178268 0.000000 0.000000
											CHANNELS 3 Xrotation Yrotation Zrotation
											End Site
											{
												OFFSET 0.119102 3.170624 0.185394
											}
										}
									}
								}
								JOINT newVegas:LeftHandPinky1
								{
									OFFSET 15.989624 -0.606689 -7.535461
									CHANNELS 3 Xrotation Yrotation Zrotation
									JOINT newVegas:LeftHandPinky2
									{
										OFFSET 2.538986 0.000000 0.000000
										CHANNELS 3 Xrotation Yrotation Zrotation
										JOINT newVegas:LeftHandPinky3
										{
											OFFSET 2.593102 0.000000 0.000000
											CHANNELS 3 Xrotation Yrotation Zrotation
											End Site
											{
												OFFSET -0.150902 2.584198 0.152708
											}
										}
									}
								}
							}
							JOINT newVegas:Left_Sleeve
							{
								OFFSET 0.267448 -0.649796 0.577675
								CHANNELS 3 Xrotation Yrotation Zrotation
								End Site
								{
									OFFSET 0.000000 15.991241 0.000000
								}
							}
							JOINT newVegas:Left_CapeC
							{
								OFFSET 15.715958 -8.608795 -6.935905
								CHANNELS 3 Xrotation Yrotation Zrotation
								JOINT newVegas:Left_CapeC1
								{
									OFFSET 0.000000 -8.688499 0.000000
									CHANNELS 3 Xrotation Yrotation Zrotation
									End Site
									{
										OFFSET 0.000000 8.688499 0.000000
									}
								}
							}
						}
						JOINT newVegas:Left_CapeB
						{
							OFFSET 26.118385 -8.608795 -7.079235
							CHANNELS 3 Xrotation Yrotation Zrotation
							JOINT newVegas:Left_CapeB1
							{
								OFFSET 0.000000 -8.688499 0.000000
								CHANNELS 3 Xrotation Yrotation Zrotation
								End Site
								{
									OFFSET 0.000000 8.688499 0.000000
								}
							}
						}
						JOINT newVegas:Left_CapeA
						{
							OFFSET 5.115639 -8.608795 -10.395809
							CHANNELS 3 Xrotation Yrotation Zrotation
							JOINT newVegas:Left_CapeA1
							{
								OFFSET 0.000000 -8.688499 0.000000
								CHANNELS 3 Xrotation Yrotation Zrotation
								End Site
								{
									OFFSET 0.000000 8.688499 0.000000
								}
							}
						}
					}
				}
				JOINT newVegas:RightShoulder
				{
					OFFSET -15.263000 10.923401 -0.547700
					CHANNELS 3 Xrotation Yrotation Zrotation
					JOINT newVegas:RightArm
					{
						OFFSET -25.438599 -2.830597 -13.032500
						CHANNELS 3 Xrotation Yrotation Zrotation
						JOINT newVegas:RightForeArm
						{
							OFFSET -29.960503 0.000000 0.000000
							CHANNELS 3 Xrotation Yrotation Zrotation
							JOINT newVegas:RightHand
							{
								OFFSET -27.849251 0.000000 0.000000
								CHANNELS 3 Xrotation Yrotation Zrotation
								JOINT newVegas:RightHandThumb1
								{
									OFFSET -4.487587 -3.305161 6.305391
									CHANNELS 3 Xrotation Yrotation Zrotation
									JOINT newVegas:RightHandThumb2
									{
										OFFSET -5.480453 -3.164139 3.164143
										CHANNELS 3 Xrotation Yrotation Zrotation
										JOINT newVegas:RightHandThumb3
										{
											OFFSET -5.159721 -2.978973 2.978967
											CHANNELS 3 Xrotation Yrotation Zrotation
											End Site
											{
												OFFSET -2.494507 5.926697 1.738678
											}
										}
									}
								}
								JOINT newVegas:RightHandIndex1
								{
									OFFSET -18.578728 -0.527832 5.208049
									CHANNELS 3 Xrotation Yrotation Zrotation
									JOINT newVegas:RightHandIndex2
									{
										OFFSET -3.192009 0.000000 0.000000
										CHANNELS 3 Xrotation Yrotation Zrotation
										JOINT newVegas:RightHandIndex3
										{
											OFFSET -3.835129 0.000000 0.000000
											CHANNELS 3 Xrotation Yrotation Zrotation
											End Site
											{
												OFFSET 0.034599 3.816971 0.371180
											}
										}
									}
								}
								JOINT newVegas:RightHandMiddle1
								{
									OFFSET -18.476105 0.000000 0.000000
									CHANNELS 3 Xrotation Yrotation Zrotation
									JOINT newVegas:RightHandMiddle2
									{
										OFFSET -3.324875 0.000000 0.000000
										CHANNELS 3 Xrotation Yrotation Zrotation
										JOINT newVegas:RightHandMiddle3
										{
											OFFSET -4.596550 0.000000 0.000000
											CHANNELS 3 Xrotation Yrotation Zrotation
											End Site
											{
												OFFSET -0.057701 4.578827 0.399218
											}
										}
									}
								}
								JOINT newVegas:RightHandRing1
								{
									OFFSET -17.732719 0.121887 -4.201567
									CHANNELS 3 Xrotation Yrotation Zrotation
									JOINT newVegas:RightHandRing2
									{
										OFFSET -2.733170 0.000000 0.000000
										CHANNELS 3 Xrotation Yrotation Zrotation
										JOINT newVegas:RightHandRing3
										{
											OFFSET -3.178268 0.000000 0.000000
											CHANNELS 3 Xrotation Yrotation Zrotation
											End Site
											{
												OFFSET -0.119102 3.170624 0.185394
											}
										}
									}
								}
								JOINT newVegas:RightHandPinky1
								{
									OFFSET -15.989624 -0.606689 -7.535461
									CHANNELS 3 Xrotation Yrotation Zrotation
									JOINT newVegas:RightHandPinky2
									{
										OFFSET -2.538986 0.000000 0.000000
										CHANNELS 3 Xrotation Yrotation Zrotation
										JOINT newVegas:RightHandPinky3
										{
											OFFSET -2.593102 0.000000 0.000000
											CHANNELS 3 Xrotation Yrotation Zrotation
											End Site
											{
												OFFSET 0.150902 2.584198 0.152708
											}
										}
									}
								}
							}
							JOINT newVegas:Right_CapeC
							{
								OFFSET -15.715958 -8.608795 -6.935905
								CHANNELS 3 Xrotation Yrotation Zrotation
								JOINT newVegas:Right_CapeC1
								{
									OFFSET 0.000000 -8.688499 0.000000
									CHANNELS 3 Xrotation Yrotation Zrotation
									End Site
									{
										OFFSET 0.000000 8.688499 0.000000
									}
								}
							}
							JOINT newVegas:Right_Sleeve
							{
								OFFSET -0.267448 -0.649994 0.577675
								CHANNELS 3 Xrotation Yrotation Zrotation
								End Site
								{
									OFFSET 0.000000 15.991302 0.000000
								}
							}
						}
						JOINT newVegas:Right_CapeA
						{
							OFFSET -5.115540 -8.608795 -10.395824
							CHANNELS 3 Xrotation Yrotation Zrotation
							JOINT newVegas:Right_CapeA1
							{
								OFFSET 0.000000 -8.688499 0.000000
								CHANNELS 3 Xrotation Yrotation Zrotation
								End Site
								{
									OFFSET 0.000000 8.688499 0.000000
								}
							}
						}
						JOINT newVegas:Right_CapeB
						{
							OFFSET -26.118187 -8.608795 -7.079266
							CHANNELS 3 Xrotation Yrotation Zrotation
							JOINT newVegas:Right_CapeB1
							{
								OFFSET 0.000000 -8.688499 0.000000
								CHANNELS 3 Xrotation Yrotation Zrotation
								End Site
								{
									OFFSET 0.000000 8.688499 0.000000
								}
							}
						}
					}
				}
				JOINT newVegas:Left_Collar
				{
					OFFSET 18.625099 8.655502 8.828100
					CHANNELS 3 Xrotation Yrotation Zrotation
					JOINT newVegas:Left_Collar1
					{
						OFFSET 14.783401 10.540405 -1.259500
						CHANNELS 3 Xrotation Yrotation Zrotation
						End Site
						{
							OFFSET 0.000000 18.199875 0.000000
						}
					}
				}
				JOINT newVegas:Collar_Back
				{
					OFFSET 0.000000 15.630707 -20.132601
					CHANNELS 3 Xrotation Yrotation Zrotation
					End Site
					{
						OFFSET 0.000000 22.523010 0.000000
					}
				}
				JOINT newVegas:Left_Peck
				{
					OFFSET 17.239599 -5.132599 25.482599
					CHANNELS 3 Xrotation Yrotation Zrotation
					End Site
					{
						OFFSET 0.000000 22.523010 0.000000
					}
				}
				JOINT newVegas:Right_Peck
				{
					OFFSET -17.239599 -5.132202 25.482599
					CHANNELS 3 Xrotation Yrotation Zrotation
					End Site
					{
						OFFSET 0.000000 22.523010 0.000000
					}
				}
				JOINT newVegas:Right_Collar
				{
					OFFSET -18.625099 8.655792 8.828100
					CHANNELS 3 Xrotation Yrotation Zrotation
					JOINT newVegas:Right_Collar1
					{
						OFFSET -14.783401 10.539993 -1.259500
						CHANNELS 3 Xrotation Yrotation Zrotation
						End Site
						{
							OFFSET 0.000000 18.199631 0.000000
						}
					}
				}
			}
		}
		JOINT newVegas:Belly
		{
			OFFSET 0.000000 -6.540398 9.014299
			CHANNELS 3 Xrotation Yrotation Zrotation
			End Site
			{
				OFFSET 0.000000 11.566666 0.000000
			}
		}
	}
	JOINT newVegas:ElvisFacialAnim_Joint
	{
		OFFSET 1.000000 -95.330101 -8.825800
		CHANNELS 3 Xrotation Yrotation Zrotation
		End Site
		{
			OFFSET 0.000000 35.315800 0.000000
		}
	}
}
MOTION
Frames: 4
Frame Time: 0.033333
-1.701026 93.710678 2.385329 2.918244 -28.993187 1.192721 -0.000000 0.000002 -0.000000 -19.099307 17.296283 13.854182 23.893011 12.122939 -1.503661 -6.542263 -3.223779 -8.276270 -0.000000 -0.000000 -0.000000 -0.000000 -0.000000 -0.000000 -12.319637 -0.381940 -11.074064 16.888205 9.890938 0.752317 -8.243728 -1.396439 8.982863 0.000000 -0.000000 0.000000 0.000001 0.000000 -0.000001 7.835965 -0.360002 -2.682249 1.099253 -0.880597 2.383468 1.108684 -0.590439 2.446367 -0.922942 3.567086 -1.380685 -0.922950 3.567110 -1.380688 -0.000000 0.000000 -0.000000 -0.922944 3.567099 -1.380687 -0.922873 3.567099 -1.380693 -0.000001 0.000001 0.000000 -0.000000 0.000000 0.000000 -0.051568 -8.759712 -0.061157 -55.250811 0.329406 -41.449450 11.584465 -65.827423 13.005603 -50.191075 12.353020 4.611002 17.551570 -5.699207 -12.932291 10.850495 26.127745 8.644836 -0.000000 0.000001 -0.000003 13.980896 1.201582 -55.004381 0.370797 1.161736 -65.441832 -0.000001 -0.000002 0.000001 7.504734 1.174441 -63.778524 1.807807 1.475632 -64.567923 -0.000001 0.000001 0.000001 8.574316 2.179111 -75.149013 -0.207674 1.009283 -57.855056 0.000001 0.000001 0.000001 10.030109 13.637084 -84.750271 0.876992 0.062351 -64.595531 -0.000001 -0.000002 0.000001 -0.000000 0.000000 0.000002 -0.000000 0.000000 0.000002 -0.000001 0.000000 0.000003 -0.000001 0.000000 -0.000001 -0.000001 -0.000001 -0.000003 -0.000001 0.000000 -0.000001 -0.000003 -0.000001 -0.000002 4.849297 7.760155 5.560452 -0.933129 -2.177036 61.845826 11.299258 18.944792 -3.996722 -0.459208 6.619763 5.830208 15.784958 -2.726000 -17.206124 -2.198390 -31.113455 7.361273 0.000000 0.000000 0.000001 2.371628 -3.659175 8.487454 -2.147362 -2.473140 18.673182 -0.000001 0.000001 0.000001 -1.976256 -5.707896 13.662390 0.283176 -5.108142 26.988058 0.000000 0.000001 -0.000001 -3.271310 -8.562011 11.767840 4.036105 -4.063344 33.263117 -0.000001 -0.000001 -0.000000 -6.474164 -11.347965 23.260704 10.721118 -2.558734 34.823060 0.000001 0.000002 -0.000001 -0.000001 0.000000 -0.000002 0.000000 0.000000 -0.000000 -0.000001 0.000000 -0.000002 -0.000001 0.000001 0.000000 -0.000001 0.000002 0.000002 -0.000001 0.000001 0.000000 -0.000001 0.000002 0.000002 0.000000 -0.000000 0.000001 0.000000 -0.000000 0.000001 0.000000 -0.000000 0.000001 0.000000 -0.000000 0.000001 0.000000 -0.000000 0.000001 0.000000 -0.000000 0.000001 0.000000 -0.000000 0.000001 -0.000001 -0.000000 -0.000000 -0.000000 0.000002 -0.000000 
-1.836881 93.702080 2.387449 3.013169 -29.205097 1.387353 -0.000000 -0.000001 0.000000 -18.830137 17.372887 13.722714 23.524671 12.216947 -1.475415 -6.416906 -3.086896 -8.398877 -0.000000 0.000000 -0.000000 0.000000 0.000000 0.000001 -12.395158 1.200790 -10.844349 17.387971 9.042329 0.681695 -8.512609 -1.911939 9.010873 -0.000000 0.000001 -0.000000 -0.000001 -0.000000 -0.000000 7.918725 -0.345349 -2.777232 0.991123 -0.847732 2.421793 0.999726 -0.554184 2.482929 -1.046054 2.830077 -1.419085 -1.046062 2.830089 -1.419087 0.000000 0.000001 -0.000000 -1.045911 2.830085 -1.419094 -1.046055 2.830062 -1.419085 0.000001 0.000002 0.000000 0.000000 0.000001 -0.000001 -0.098385 -8.462481 -0.331339 -55.273333 -0.329654 -42.472118 12.810278 -65.673567 14.141468 -50.207980 12.593956 4.479341 17.551570 -5.699207 -12.932289 10.850498 26.127743 8.644833 0.000001 -0.000003 -0.000006 13.980898 1.201581 -55.004381 0.370796 1.161736 -65.441825 0.000000 -0.000001 -0.000002 7.504735 1.174442 -63.778524 1.807807 1.475632 -64.567923 0.000001 0.000001 0.000002 8.574319 2.179112 -75.149013 -0.207672 1.009279 -57.855056 -0.000001 -0.000002 -0.000004 10.030111 13.637087 -84.750271 0.876992 0.062349 -64.595537 0.000001 -0.000003 0.000000 0.000001 0.000000 -0.000001 0.000001 0.000000 -0.000001 0.000000 0.000000 -0.000000 0.000001 -0.000003 0.000000 0.000001 -0.000003 -0.000001 0.000001 -0.000003 0.000000 -0.000001 -0.000003 -0.000000 4.834472 7.856207 5.390516 -0.785838 -2.163119 61.828355 11.600987 19.157880 -4.118517 -0.479395 6.477903 5.979655 15.784948 -2.726002 -17.206102 -2.198405 -31.113448 7.361232 0.000001 0.000000 0.000001 2.272219 -3.998278 7.947052 -2.176044 -2.447646 18.005077 0.000001 0.000001 0.000001 -1.995421 -5.946081 13.289881 0.247224 -5.107093 26.585700 0.000002 0.000000 0.000001 -3.266357 -8.745133 11.651539 4.027512 -4.071786 33.142096 0.000000 -0.000001 0.000000 -6.658575 -11.622250 23.421069 10.723371 -2.542019 34.911836 0.000001 0.000002 -0.000002 -0.000000 0.000000 -0.000001 -0.000000 0.000000 -0.000002 -0.000000 0.000000 -0.000001 -0.000001 0.000002 0.000003 -0.000000 0.000003 0.000003 -0.000001 0.000002 0.000003 -0.000001 0.000003 0.000003 0.000000 -0.000001 0.000000 0.000000 -0.000001 0.000000 0.000000 -0.000001 0.000000 0.000000 -0.000001 0.000000 0.000000 -0.000001 0.000000 0.000000 -0.000001 0.000000 0.000000 -0.000001 0.000000 0.000001 0.000000 -0.000000 -0.000000 -0.000001 0.000000 
-2.123370 93.692375 2.362401 3.042467 -29.400638 1.548213 -0.000000 0.000000 0.000000 -18.451845 17.439177 13.705897 23.055561 12.047256 -1.455606 -6.223824 -2.730393 -8.599644 -0.000000 0.000000 0.000000 0.000000 0.000000 0.000001 -12.422346 3.055273 -10.426601 18.126438 7.693116 0.570002 -8.941480 -2.244766 9.004686 -0.000000 -0.000001 -0.000000 -0.000000 0.000003 -0.000000 8.030553 -0.347297 -2.920823 0.912993 -0.830178 2.448526 0.921295 -0.532958 2.507120 -1.269557 1.682025 -1.360222 -1.269567 1.682029 -1.360224 -0.000000 -0.000001 0.000001 -1.269627 1.682021 -1.360218 -1.269422 1.682070 -1.360234 0.000000 0.000001 0.000000 -0.000000 -0.000001 0.000000 -0.132857 -8.335564 -0.441733 -55.417471 -1.188457 -43.885229 14.272906 -65.605285 15.475727 -50.198042 12.788588 4.239248 17.551570 -5.699205 -12.932290 10.850493 26.127739 8.644832 -0.000000 -0.000000 -0.000003 13.980898 1.201584 -55.004381 0.370799 1.161737 -65.441825 0.000000 -0.000003 0.000002 7.504736 1.174444 -63.778524 1.807809 1.475629 -64.567923 -0.000000 -0.000001 -0.000000 8.574316 2.179112 -75.149013 -0.207672 1.009281 -57.855056 -0.000001 0.000001 -0.000001 10.030107 13.637085 -84.750271 0.876990 0.062351 -64.595531 0.000000 -0.000005 -0.000000 -0.000001 0.000000 0.000002 -0.000001 0.000000 0.000002 -0.000002 0.000000 0.000002 0.000001 0.000000 -0.000001 0.000000 -0.000001 -0.000001 0.000001 0.000000 -0.000001 -0.000001 -0.000001 -0.000002 4.838874 7.751379 5.029074 -0.724772 -1.588041 62.039373 11.920829 19.334051 -4.147190 -0.503895 6.238611 5.988789 15.784970 -2.726005 -17.206138 -2.198411 -31.113448 7.361237 0.000001 -0.000003 -0.000003 2.157255 -4.441884 7.321523 -2.207956 -2.418565 17.253785 0.000000 0.000001 -0.000000 -2.009216 -6.281334 12.849736 0.205749 -5.106176 26.121328 0.000001 -0.000000 0.000001 -3.221642 -9.046405 11.504853 4.017054 -4.082066 32.994848 -0.000000 0.000001 0.000002 -6.785080 -12.026780 23.563466 10.726851 -2.527064 34.991162 0.000000 0.000002 0.000001 -0.000000 -0.000000 0.000002 0.000000 -0.000000 0.000002 -0.000000 -0.000000 0.000002 -0.000001 0.000000 -0.000001 -0.000000 0.000000 -0.000000 -0.000001 0.000000 -0.000001 -0.000000 -0.000000 -0.000000 0.000001 0.000001 -0.000000 0.000001 0.000001 -0.000000 0.000001 0.000001 -0.000000 0.000001 0.000001 -0.000000 0.000001 0.000001 -0.000000 0.000001 0.000001 -0.000000 0.000001 0.000001 -0.000000 0.000001 0.000003 -0.000000 -0.000000 0.000000 0.000000 
-2.539352 93.682373 2.298938 3.034445 -29.571550 1.677549 0.000000 0.000001 -0.000000 -18.021232 17.490829 13.802892 22.490432 11.676007 -1.434664 -5.943848 -2.213854 -8.873368 0.000000 -0.000000 0.000000 0.000000 -0.000000 0.000000 -12.431684 5.124055 -9.784077 19.008334 7.015189 0.510264 -9.478867 -3.504428 8.681697 0.000000 0.000000 -0.000000 0.000002 0.000001 0.000000 8.158632 -0.380835 -3.077060 0.859038 -0.848919 2.460705 0.868113 -0.548523 2.517428 -1.520591 0.273032 -1.210863 -1.520587 0.273024 -1.210866 0.000000 0.000003 -0.000000 -1.520445 0.273046 -1.210867 -1.520735 0.273011 -1.210859 -0.000000 0.000001 -0.000000 0.000000 0.000003 -0.000000 -0.111866 -8.427262 -0.321463 -55.865029 -2.203782 -45.672351 16.135248 -65.548724 17.181554 -50.212016 13.093531 4.041077 17.551570 -5.699206 -12.932289 10.850497 26.127743 8.644834 -0.000001 -0.000000 -0.000005 13.980894 1.201583 -55.004381 0.370793 1.161736 -65.441832 -0.000001 -0.000003 -0.000004 7.504734 1.174442 -63.778524 1.807808 1.475630 -64.567923 0.000001 -0.000002 -0.000002 8.574317 2.179112 -75.149013 -0.207674 1.009284 -57.855056 0.000001 -0.000001 0.000001 10.030108 13.637084 -84.750271 0.876992 0.062351 -64.595537 -0.000000 -0.000002 -0.000001 0.000000 0.000000 0.000002 0.000000 0.000000 0.000002 -0.000001 0.000000 0.000002 0.000001 -0.000003 -0.000000 0.000000 -0.000003 -0.000001 0.000001 -0.000003 -0.000000 -0.000001 -0.000003 -0.000001 4.848836 7.565134 4.605955 -0.706615 -0.805386 62.322751 12.241302 19.495324 -4.139322 -0.529241 5.973463 5.942285 15.784972 -2.726009 -17.206119 -2.198402 -31.113438 7.361260 0.000001 -0.000000 -0.000001 2.028113 -4.926601 6.659231 -2.240874 -2.387755 16.468957 -0.000000 0.000001 -0.000001 -2.025274 -6.656377 12.381472 0.162043 -5.105497 25.631656 -0.000000 0.000000 0.000001 -3.165608 -9.397667 11.345374 4.005801 -4.093026 32.836835 -0.000001 0.000002 -0.000000 -6.886195 -12.484522 23.696880 10.730164 -2.512817 35.066533 0.000001 0.000002 -0.000000 -0.000000 -0.000000 -0.000000 -0.000000 -0.000000 -0.000000 -0.000000 -0.000000 -0.000000 0.000001 0.000000 -0.000001 0.000002 0.000000 -0.000000 0.000001 0.000000 -0.000001 0.000002 -0.000000 -0.000000 -0.000000 0.000000 0.000000 -0.000000 0.000000 0.000000 -0.000000 0.000000 0.000000 -0.000000 0.000000 0.000000 -0.000000 0.000000 0.000000 -0.000000 0.000000 0.000000 -0.000000 0.000000 0.000000 -0.000000 -0.000001 0.000000 0.000000 0.000001 -0.000000 
